<svg xmlns="http://www.w3.org/2000/svg" width="64" height="64" id="gaming"><g fill="none" stroke="#646464" stroke-linecap="round" stroke-linejoin="round" stroke-miterlimit="10" stroke-width="2"><path d="M48 1H15.838C7.459 1 1 7.459 1 15.838v32.324C1 56.541 7.459 63 15.838 63h32.324C56.541 63 63 56.541 63 48.162V33"></path><path d="M47.375 1c4.189 0 8.77 1.365 11.516 4.11M63 27v-9M14.801 35.489c-1.562-.849-2.148-2.824-1.312-4.407.838-1.585 2.783-2.183 4.342-1.332M38.232 36.775c1.562.848 2.146 2.822 1.312 4.406-.838 1.586-2.781 2.184-4.344 1.332"></path><path d="m27.258 32.996 5.828 2.007a6.521 6.521 0 0 1 4.549-1.992l1.793-5.528c-.006-.109-.018-.218-.018-.328 0-4.176 3.338-7.562 7.457-7.562 4.113 0 7.451 3.387 7.451 7.562 0 3.311-2.096 6.114-5.012 7.143L44.3 38.646c.051.347.088.699.088 1.061 0 3.705-2.959 6.705-6.602 6.705-3.146 0-5.773-2.234-6.439-5.222l-12.383-4.265a5.738 5.738 0 0 1-3.516 1.207c-3.219 0-5.83-2.648-5.83-5.916 0-3.266 2.611-5.915 5.83-5.915 2.764 0 5.078 1.96 5.674 4.583"></path><path d="M46.838 31.402c-2.285 0-4.137-1.881-4.137-4.199 0-2.32 1.852-4.199 4.137-4.199 2.283 0 4.135 1.879 4.135 4.199 0 2.318-1.852 4.199-4.135 4.199z"></path></g></svg>